<svg xmlns="http://www.w3.org/2000/svg" viewBox="0 0 400 220" width="400" height="220">
  <defs>
    <linearGradient id="cardGrad" x1="0%" y1="0%" x2="0%" y2="100%">
      <stop offset="0%" stop-color="#1c1c4a"/>
      <stop offset="100%" stop-color="#080812"/>
    </linearGradient>
    <linearGradient id="barGrad" x1="0%" y1="0%" x2="100%" y2="0%">
      <stop offset="0%" stop-color="#00e5ff"/>
      <stop offset="100%" stop-color="#a855f7"/>
    </linearGradient>
  </defs>
  <rect width="400" height="220" rx="12" fill="url(#cardGrad)" stroke="#a855f7" stroke-width="1.5"/>
  <text x="20" y="32" fill="#e2e8f0" font-family="system-ui" font-size="16" font-weight="bold">Top Languages</text>
  
  <text x="20" y="50" fill="#e2e8f0" font-family="system-ui" font-size="13">JavaScript</text>
  <text x="380" y="50" fill="#00e5ff" font-family="monospace" font-size="12" text-anchor="end">79%</text>
  <rect x="20" y="56" width="360" height="12" rx="6" fill="#141432"/>
  <rect x="20" y="56" width="0" height="12" rx="6" fill="url(#barGrad)">
    <animate attributeName="width" from="0" to="284.40000000000003" dur="1.2s" begin="0.2s" fill="freeze"/>
  </rect>
  <text x="20" y="92" fill="#e2e8f0" font-family="system-ui" font-size="13">CSS</text>
  <text x="380" y="92" fill="#00e5ff" font-family="monospace" font-size="12" text-anchor="end">6%</text>
  <rect x="20" y="98" width="360" height="12" rx="6" fill="#141432"/>
  <rect x="20" y="98" width="0" height="12" rx="6" fill="url(#barGrad)">
    <animate attributeName="width" from="0" to="21.6" dur="1.2s" begin="0.35s" fill="freeze"/>
  </rect>
  <text x="20" y="134" fill="#e2e8f0" font-family="system-ui" font-size="13">C#</text>
  <text x="380" y="134" fill="#00e5ff" font-family="monospace" font-size="12" text-anchor="end">5%</text>
  <rect x="20" y="140" width="360" height="12" rx="6" fill="#141432"/>
  <rect x="20" y="140" width="0" height="12" rx="6" fill="url(#barGrad)">
    <animate attributeName="width" from="0" to="18.0" dur="1.2s" begin="0.5s" fill="freeze"/>
  </rect>
  <text x="20" y="176" fill="#e2e8f0" font-family="system-ui" font-size="13">Python</text>
  <text x="380" y="176" fill="#00e5ff" font-family="monospace" font-size="12" text-anchor="end">5%</text>
  <rect x="20" y="182" width="360" height="12" rx="6" fill="#141432"/>
  <rect x="20" y="182" width="0" height="12" rx="6" fill="url(#barGrad)">
    <animate attributeName="width" from="0" to="18.0" dur="1.2s" begin="0.6499999999999999s" fill="freeze"/>
  </rect>
</svg>