<svg xmlns="http://www.w3.org/2000/svg" viewBox="0 0 400 280" width="400" height="280">
  <defs>
    <linearGradient id="cardGrad" x1="0%" y1="0%" x2="0%" y2="100%">
      <stop offset="0%" stop-color="#1c1c4a"/>
      <stop offset="100%" stop-color="#080812"/>
    </linearGradient>
    <linearGradient id="journeyGrad" x1="0%" y1="0%" x2="100%" y2="0%">
      <stop offset="0%" stop-color="#00e5ff"/>
      <stop offset="50%" stop-color="#a855f7"/>
      <stop offset="100%" stop-color="#ec4899"/>
    </linearGradient>
  </defs>
  <rect width="400" height="280" rx="12" fill="url(#cardGrad)" stroke="#ec4899" stroke-width="1.5"/>
  <text x="20" y="32" fill="#e2e8f0" font-family="system-ui" font-size="16" font-weight="bold">📊 Learning Journey</text>
  
  <text x="20" y="50" fill="#e2e8f0" font-family="system-ui" font-size="13">React</text>
  <text x="380" y="50" fill="#ec4899" font-family="monospace" font-size="11" text-anchor="end">100%</text>
  <rect x="20" y="56" width="320" height="10" rx="5" fill="#141432"/>
  <rect x="20" y="56" width="0" height="10" rx="5" fill="url(#journeyGrad)">
    <animate attributeName="width" from="0" to="320" dur="1.4s" begin="0.15s" fill="freeze"/>
  </rect>
  <text x="20" y="88" fill="#e2e8f0" font-family="system-ui" font-size="13">TypeScript</text>
  <text x="380" y="88" fill="#ec4899" font-family="monospace" font-size="11" text-anchor="end">90%</text>
  <rect x="20" y="94" width="320" height="10" rx="5" fill="#141432"/>
  <rect x="20" y="94" width="0" height="10" rx="5" fill="url(#journeyGrad)">
    <animate attributeName="width" from="0" to="288" dur="1.4s" begin="0.27s" fill="freeze"/>
  </rect>
  <text x="20" y="126" fill="#e2e8f0" font-family="system-ui" font-size="13">Node.js</text>
  <text x="380" y="126" fill="#ec4899" font-family="monospace" font-size="11" text-anchor="end">80%</text>
  <rect x="20" y="132" width="320" height="10" rx="5" fill="#141432"/>
  <rect x="20" y="132" width="0" height="10" rx="5" fill="url(#journeyGrad)">
    <animate attributeName="width" from="0" to="256" dur="1.4s" begin="0.39s" fill="freeze"/>
  </rect>
  <text x="20" y="164" fill="#e2e8f0" font-family="system-ui" font-size="13">LangGraph</text>
  <text x="380" y="164" fill="#ec4899" font-family="monospace" font-size="11" text-anchor="end">70%</text>
  <rect x="20" y="170" width="320" height="10" rx="5" fill="#141432"/>
  <rect x="20" y="170" width="0" height="10" rx="5" fill="url(#journeyGrad)">
    <animate attributeName="width" from="0" to="224" dur="1.4s" begin="0.51s" fill="freeze"/>
  </rect>
  <text x="20" y="202" fill="#e2e8f0" font-family="system-ui" font-size="13">MCP</text>
  <text x="380" y="202" fill="#ec4899" font-family="monospace" font-size="11" text-anchor="end">60%</text>
  <rect x="20" y="208" width="320" height="10" rx="5" fill="#141432"/>
  <rect x="20" y="208" width="0" height="10" rx="5" fill="url(#journeyGrad)">
    <animate attributeName="width" from="0" to="192" dur="1.4s" begin="0.63s" fill="freeze"/>
  </rect>
  <text x="20" y="240" fill="#e2e8f0" font-family="system-ui" font-size="13">AI Agents</text>
  <text x="380" y="240" fill="#ec4899" font-family="monospace" font-size="11" text-anchor="end">60%</text>
  <rect x="20" y="246" width="320" height="10" rx="5" fill="#141432"/>
  <rect x="20" y="246" width="0" height="10" rx="5" fill="url(#journeyGrad)">
    <animate attributeName="width" from="0" to="192" dur="1.4s" begin="0.75s" fill="freeze"/>
  </rect>
</svg>